<svg width="56" height="56" viewBox="0 0 56 56" fill="none" xmlns="http://www.w3.org/2000/svg">
  <rect width="56" height="56" fill="#3544C7"/>
  <path d="M28 44C36.8366 44 44 36.8366 44 28C44 19.1634 36.8366 12 28 12C19.1634 12 12 19.1634 12 28C12 36.8366 19.1634 44 28 44Z" fill="#7DEBFF"/>
  <path d="M28 17.9067C27.7511 18.0134 22.3822 22.1734 17.8666 20.8578C17.8666 20.8578 19.2889 37.7822 28 40.0934C36.7111 37.7822 38.1333 20.8578 38.1333 20.8578C33.6178 22.1734 28.2489 18.0134 28 17.9067ZM28.4266 38.1734V20.6089C28.4266 20.6089 32.5866 23.5245 36.2489 22.8134C36.2489 22.8134 32.48 38.8845 28.4266 38.1734Z" fill="#606060"/>
</svg>