<svg width="56" height="56" viewBox="0 0 56 56" fill="none" xmlns="http://www.w3.org/2000/svg">
  <rect width="56" height="56" fill="#3544C7"/>
  <path d="M25.4416 38.3447L27.0412 41.1309C27.0758 41.191 27.1247 41.2384 27.1821 41.2676C27.2396 41.2968 27.3031 41.3065 27.3651 41.2957C27.4272 41.2848 27.4853 41.2538 27.5325 41.2063C27.5797 41.1588 27.6141 41.0968 27.6315 41.0277L33.5722 17.3284L34.9279 11.3831C34.9435 11.3175 34.941 11.248 34.9208 11.1841C34.9006 11.1202 34.8637 11.065 34.8151 11.0261C34.7665 10.9872 34.7086 10.9664 34.6493 10.9667C34.5901 10.9669 34.5323 10.9882 34.484 11.0275L30.7069 14.1234C30.4808 14.3088 30.3195 14.5802 30.2517 14.8892C29.5876 17.9106 25.9794 34.3496 25.3052 37.4212C25.2707 37.5776 25.265 37.7404 25.2885 37.8994C25.312 38.0584 25.3641 38.2101 25.4416 38.3447Z" fill="#0094FF"/>
  <path d="M34.9768 7.33866L28.8026 0.141297C28.7573 0.0880329 28.6843 0.0459516 28.5957 0.0219585C28.507 -0.00203464 28.4079 -0.00651486 28.3147 0.00925338C28.2214 0.0250216 28.1395 0.0601016 28.0824 0.108737C28.0253 0.157373 27.9963 0.216675 28.0004 0.276914L28.5455 9.82819C28.5504 9.9103 28.5908 9.99005 28.6624 10.059C28.734 10.1279 28.8342 10.1835 28.9523 10.2198C29.0705 10.2561 29.2021 10.2718 29.3334 10.2652C29.4647 10.2586 29.5906 10.2299 29.6979 10.1823L34.7577 7.92203C34.9011 7.85779 35.0024 7.76327 35.0427 7.656C35.083 7.54873 35.0596 7.43598 34.9768 7.33866Z" fill="#0094FF"/>
  <path d="M19.1467 27.1483L22.9651 33.8626C23.0077 33.9365 23.068 33.9945 23.1385 34.0295C23.2091 34.0646 23.2869 34.0751 23.3626 34.0599C23.4382 34.0447 23.5084 34.0043 23.5646 33.9438C23.6208 33.8833 23.6606 33.8051 23.6791 33.7189L27.7273 15.0675C27.7735 14.8539 27.7551 14.6285 27.6751 14.4287C27.5951 14.229 27.4584 14.067 27.2877 13.9698L19.2399 9.38773C19.1697 9.34765 19.0918 9.32918 19.0137 9.33412C18.9356 9.33906 18.86 9.36724 18.794 9.41593C18.7281 9.46462 18.6742 9.53218 18.6374 9.61207C18.6006 9.69195 18.5823 9.78146 18.5842 9.87194L18.9207 26.3149C18.9272 26.6117 19.0055 26.9004 19.1467 27.1483Z" fill="#0094FF"/>
  <path d="M9.94129 56H14.3391C14.4027 56.0001 14.4654 55.9827 14.5222 55.949C14.5789 55.9153 14.628 55.8664 14.6656 55.8062C14.7031 55.7461 14.728 55.6764 14.7382 55.6028C14.7483 55.5292 14.7435 55.4539 14.7242 55.3829L12.6526 47.812C12.6269 47.7179 12.5767 47.6357 12.509 47.5767C12.4414 47.5178 12.3597 47.4852 12.2754 47.4834C12.1912 47.4817 12.1086 47.5109 12.0392 47.567C11.9698 47.6231 11.9172 47.7032 11.8886 47.7961L9.56363 55.367C9.54178 55.4383 9.53483 55.5146 9.54336 55.5896C9.55189 55.6646 9.57566 55.7361 9.61266 55.7981C9.64966 55.8601 9.69882 55.9108 9.756 55.946C9.81319 55.9811 9.87673 55.9996 9.94129 56Z" fill="#0094FF"/>
  <path d="M52.6363 23.1294L54.7964 17.1707C54.9372 16.782 54.9094 16.3638 54.718 15.9908L49.8137 6.44669C49.7584 6.33931 49.6686 6.24699 49.5545 6.18005C49.4404 6.11312 49.3064 6.0742 49.1676 6.06765C49.0287 6.06111 48.8904 6.08718 48.7681 6.14297C48.6458 6.19876 48.5444 6.28206 48.4752 6.38357L42.1204 15.714C42.0141 15.8706 41.9765 16.0536 42.0143 16.2311C42.0521 16.4086 42.1627 16.5693 42.327 16.6851L51.7696 23.3431C51.8381 23.3914 51.9196 23.4248 52.0071 23.4403C52.0946 23.4557 52.1852 23.4527 52.271 23.4316C52.3567 23.4104 52.4349 23.3718 52.4987 23.3191C52.5624 23.2664 52.6097 23.2012 52.6363 23.1294Z" fill="#0094FF"/>
  <path d="M18.1136 30.4752C18.0628 30.3862 17.9915 30.3152 17.9078 30.2702C17.8241 30.2253 17.7313 30.2081 17.6396 30.2207C17.548 30.2332 17.4611 30.2749 17.3888 30.3412C17.3165 30.4075 17.2616 30.4957 17.2301 30.5961L13.8456 41.585C13.7274 41.9681 13.7212 42.3855 13.8282 42.773L17.3533 55.4664C17.3965 55.6216 17.4813 55.7569 17.5954 55.8528C17.7094 55.9487 17.8469 56.0002 17.9879 56H23.4778C23.6222 55.9997 23.7626 55.9453 23.8779 55.8449C23.9932 55.7446 24.0773 55.6037 24.1174 55.4434L26.4679 45.9892C26.5143 45.8034 26.5253 45.6081 26.5001 45.417C26.475 45.2258 26.4143 45.0431 26.3223 44.8816L18.1136 30.4752Z" fill="#0094FF"/>
  <path d="M7.16763 14.4509L13.3365 11.5536C13.544 11.4566 13.6862 11.3126 13.7343 11.1507C13.7824 10.9889 13.7328 10.8213 13.5956 10.6821L8.37674 5.37386C8.3045 5.30021 8.20437 5.23952 8.0857 5.19745C7.96704 5.15539 7.8337 5.13333 7.69816 5.13333C7.56261 5.13333 7.42928 5.15539 7.31061 5.19745C7.19195 5.23952 7.09182 5.30021 7.01958 5.37386L1.01108 11.6067C0.880494 11.7423 0.836597 11.9051 0.888561 12.061C0.940525 12.2169 1.08433 12.3539 1.28991 12.4433L5.93385 14.4644C6.11656 14.5441 6.33319 14.5856 6.55407 14.5832C6.77495 14.5808 6.98926 14.5346 7.16763 14.4509Z" fill="#0094FF"/>
  <path d="M7.02672 55.1561L14.4076 31.3467C14.5803 30.7916 14.674 30.2074 14.6851 29.6173L14.991 13.2343C14.9942 13.0547 14.9541 12.8776 14.8754 12.7231C14.7966 12.5685 14.6822 12.4426 14.5452 12.3595C14.4081 12.2763 14.2538 12.2393 14.0996 12.2526C13.9454 12.266 13.7974 12.329 13.6724 12.4348L8.36005 16.9496C7.97644 17.2752 7.71857 17.7632 7.6422 18.3079L3.47321 48.1567C3.33375 49.1581 3.30804 50.1765 3.39674 51.1857L3.71496 54.7936C3.74371 55.1244 3.87726 55.4311 4.08968 55.654C4.3021 55.877 4.57825 56.0003 4.86452 56H5.99311C6.21928 56.0003 6.44001 55.9194 6.62506 55.7683C6.8101 55.6173 6.95039 55.4034 7.02672 55.1561Z" fill="#0094FF"/>
  <path d="M0.00147853 14.023L1.93285 39.9288C1.94032 40.0151 1.9753 40.0954 2.03122 40.1546C2.08715 40.2137 2.16016 40.2476 2.23654 40.2499C2.31292 40.2522 2.3874 40.2227 2.44599 40.167C2.50459 40.1113 2.54326 40.0332 2.55473 39.9474L5.19014 18.2262C5.22657 17.9259 5.18836 17.6199 5.07981 17.3429C4.97127 17.0659 4.79671 16.8289 4.57584 16.6586L0.619568 13.611C0.557479 13.5632 0.484737 13.5363 0.409771 13.5336C0.334805 13.5308 0.260684 13.5522 0.195996 13.5953C0.131309 13.6385 0.078704 13.7015 0.0442771 13.7772C0.0098502 13.8529 -0.00498925 13.9381 0.00147853 14.023Z" fill="#0094FF"/>
  <path d="M47.6381 56H54.8346C54.9877 56.0002 55.1393 55.9655 55.2808 55.8979C55.4222 55.8304 55.5508 55.7313 55.659 55.6063C55.7673 55.4813 55.8531 55.3328 55.9116 55.1695C55.9701 55.0061 56.0002 54.8311 56 54.6543V22.6187C56.0005 22.5105 55.9672 22.4057 55.9062 22.3235C55.8452 22.2414 55.7606 22.1874 55.6679 22.1715C55.5752 22.1556 55.4806 22.1789 55.4016 22.237C55.3225 22.2952 55.2643 22.3843 55.2376 22.488L46.7488 54.6126C46.7062 54.7732 46.6968 54.943 46.7213 55.1085C46.7459 55.274 46.8038 55.4305 46.8903 55.5654C46.9768 55.7004 47.0895 55.81 47.2194 55.8855C47.3493 55.961 47.4927 56.0002 47.6381 56Z" fill="#0094FF"/>
  <path d="M41.4558 17.2631C41.3919 17.2018 41.3136 17.1635 41.2308 17.153C41.1479 17.1424 41.0641 17.1602 40.9901 17.204C40.916 17.2478 40.8548 17.3157 40.8143 17.3991C40.7738 17.4826 40.7558 17.5779 40.7624 17.6731L42.4072 42.419C42.4172 42.5758 42.4348 42.7317 42.4597 42.8863L43.933 52.2176C43.9497 52.3247 43.9974 52.4221 44.0684 52.4944C44.1394 52.5666 44.2296 52.6094 44.3243 52.6158C44.4191 52.6223 44.5131 52.592 44.591 52.5299C44.669 52.4678 44.7264 52.3775 44.7541 52.2735L51.228 27.9734C51.3123 27.6575 51.3134 27.3202 51.2312 27.0036C51.1491 26.687 50.9873 26.4051 50.7662 26.1931L41.4558 17.2631Z" fill="#0094FF"/>
  <path d="M38.5443 34.4955L34.6868 26.5348C34.6411 26.4392 34.5717 26.3614 34.4875 26.3113C34.4032 26.2612 34.3079 26.2411 34.2137 26.2536C34.1196 26.266 34.0307 26.3104 33.9585 26.3812C33.8863 26.4519 33.834 26.5458 33.8083 26.6508L26.6557 55.2967C26.6353 55.3788 26.6317 55.4652 26.6452 55.5491C26.6587 55.6331 26.689 55.7123 26.7336 55.7804C26.7783 55.8486 26.8361 55.9039 26.9024 55.942C26.9688 55.9801 27.0419 56 27.1161 56H41.5209C41.5909 56 41.6602 55.9823 41.7237 55.9482C41.7872 55.914 41.8434 55.8643 41.8884 55.8024C41.9333 55.7405 41.966 55.6681 41.984 55.5901C42.0019 55.5121 42.0049 55.4306 41.9925 55.3512L38.8953 35.6241C38.833 35.2283 38.7144 34.8469 38.5443 34.4955Z" fill="#0094FF"/>
  <path d="M27.9993 10.4654L27.4707 0.206745C27.4687 0.161334 27.4457 0.117554 27.4051 0.0817844C27.3645 0.0460149 27.3083 0.0201246 27.2449 0.0078853C27.1814 -0.00435395 27.114 -0.00230237 27.0523 0.0137409C26.9907 0.0297841 26.938 0.0589807 26.9021 0.0970772C25.3542 1.71877 20.8993 6.46125 19.6607 7.78244C19.6199 7.82566 19.5929 7.87436 19.5815 7.92531C19.57 7.97627 19.5744 8.02832 19.5943 8.07803C19.6141 8.12773 19.6491 8.17396 19.6968 8.21366C19.7445 8.25336 19.8039 8.28563 19.8711 8.30832L27.2365 10.8125C27.3194 10.8406 27.4116 10.8533 27.5037 10.8493C27.5959 10.8452 27.685 10.8247 27.7621 10.7896C27.8392 10.7545 27.9016 10.7061 27.9432 10.6492C27.9848 10.5924 28.0041 10.529 27.9993 10.4654Z" fill="#0094FF"/>
</svg>