<svg width="56" height="56" viewBox="0 0 56 56" fill="none" xmlns="http://www.w3.org/2000/svg">
  <g clip-path="url(#clip0_27_3)">
  <rect width="56" height="56" fill="#232323"/>
  <rect width="56" height="56" fill="#A34D77"/>
  <circle cx="28" cy="28" r="20" fill="black" fill-opacity="0.2"/>
  <path d="M48.7071 28.7071C49.0976 28.3166 49.0976 27.6834 48.7071 27.2929L42.3431 20.9289C41.9526 20.5384 41.3195 20.5384 40.9289 20.9289C40.5384 21.3195 40.5384 21.9526 40.9289 22.3431L46.5858 28L40.9289 33.6569C40.5384 34.0474 40.5384 34.6805 40.9289 35.0711C41.3195 35.4616 41.9526 35.4616 42.3431 35.0711L48.7071 28.7071ZM33 29L48 29V27L33 27V29Z" fill="white"/>
  <path d="M28.7071 48.7071C28.3166 49.0976 27.6834 49.0976 27.2929 48.7071L20.9289 42.3431C20.5384 41.9526 20.5384 41.3195 20.9289 40.9289C21.3195 40.5384 21.9526 40.5384 22.3431 40.9289L28 46.5858L33.6569 40.9289C34.0474 40.5384 34.6805 40.5384 35.0711 40.9289C35.4616 41.3195 35.4616 41.9526 35.0711 42.3431L28.7071 48.7071ZM29 33L29 48L27 48L27 33L29 33Z" fill="white"/>
  <path d="M7.29289 28.7071C6.90237 28.3166 6.90237 27.6834 7.29289 27.2929L13.6569 20.9289C14.0474 20.5384 14.6805 20.5384 15.0711 20.9289C15.4616 21.3195 15.4616 21.9526 15.0711 22.3431L9.41421 28L15.0711 33.6569C15.4616 34.0474 15.4616 34.6805 15.0711 35.0711C14.6805 35.4616 14.0474 35.4616 13.6569 35.0711L7.29289 28.7071ZM23 29L8 29V27L23 27V29Z" fill="white"/>
  <path d="M28.7071 7.29289C28.3166 6.90237 27.6834 6.90237 27.2929 7.29289L20.9289 13.6569C20.5384 14.0474 20.5384 14.6805 20.9289 15.0711C21.3195 15.4616 21.9526 15.4616 22.3431 15.0711L28 9.41421L33.6569 15.0711C34.0474 15.4616 34.6805 15.4616 35.0711 15.0711C35.4616 14.6805 35.4616 14.0474 35.0711 13.6569L28.7071 7.29289ZM29 23L29 8L27 8L27 23L29 23Z" fill="white"/>
  </g>
  <defs>
  <clipPath id="clip0_27_3">
  <rect width="56" height="56" fill="white"/>
  </clipPath>
  </defs>
</svg>